<?xml version="1.0" encoding="UTF-8"?>
<svg width="26px" height="19px" viewBox="0 0 26 19" version="1.1" xmlns="http://www.w3.org/2000/svg" xmlns:xlink="http://www.w3.org/1999/xlink">
    <!-- Generator: Sketch 53.2 (72643) - https://sketchapp.com -->
    <title>Icon</title>
    <desc>Created with Sketch.</desc>
    <g id="Page-1" stroke="none" stroke-width="1" fill="none" fill-rule="evenodd">
        <g id="2" transform="translate(-267.000000, -128.000000)" fill="#D7DADC">
            <g id="Iconos/arrow-down" transform="translate(305.000000, 137.500000) rotate(90.000000) translate(-305.000000, -137.500000) translate(296.000000, 99.000000)">
                <g id="Group">
                    <path d="M17.5901795,66.9491132 C17.3337629,66.6926966 16.8978547,66.6926966 16.6157964,66.9491132 L9.58998127,74.00057 L9.58998127,51.6923249 C9.58998127,51.3076999 9.28228133,51 8.89765642,51 C8.5130315,51 8.20533156,51.3076999 8.20533156,51.6923249 L8.20533156,74.00057 L1.17951641,66.9491132 C0.923099801,66.6926966 0.487191562,66.6926966 0.205133289,66.9491132 C0.0769249834,67.0773215 0,67.2568132 0,67.4363048 C0,67.6157964 0.0769249834,67.795288 0.205133289,67.9234964 L8.41046485,76.1288279 C8.66688147,76.3852445 9.1027897,76.3852445 9.38484798,76.1288279 L9.38484798,76.1288279 L17.5901795,67.9234964 C17.8465962,67.6414381 17.8465962,67.2055298 17.5901795,66.9491132 Z" id="Icon"></path>
                </g>
            </g>
        </g>
    </g>
</svg>