<?xml version="1.0" encoding="UTF-8"?>
<svg width="27px" height="27px" viewBox="0 0 27 27" version="1.1" xmlns="http://www.w3.org/2000/svg" xmlns:xlink="http://www.w3.org/1999/xlink">
    <!-- Generator: Sketch 53.2 (72643) - https://sketchapp.com -->
    <title>Iconos/close-modal</title>
    <desc>Created with Sketch.</desc>
    <g id="Page-1" stroke="none" stroke-width="1" fill="none" fill-rule="evenodd">
        <g id="2" transform="translate(-317.000000, -81.000000)">
            <g id="Iconos/close-modal" transform="translate(317.000000, 81.000000)">
                <path d="M13.5,0.5 C6.3213231,0.5 0.5,6.3213231 0.5,13.5 C0.5,20.6786769 6.3213231,26.5 13.5,26.5 C20.6786769,26.5 26.5,20.6786769 26.5,13.5 C26.5,6.3213231 20.6786769,0.5 13.5,0.5 Z" id="Path" stroke="#003175" opacity="0.588355655"></path>
                <path d="M19.7620482,8.51204819 L14.746988,13.5271084 L19.1927711,18.4879518 C19.5451807,18.8403614 19.5451807,19.4096386 19.1927711,19.7620482 C18.8403614,20.1144578 18.2710843,20.1144578 17.9186747,19.7620482 L13.4728916,14.8012048 L8.51204819,19.7620482 C8.15963855,20.1144578 7.59036145,20.1144578 7.23795181,19.7620482 C6.88554217,19.4096386 6.88554217,18.8403614 7.23795181,18.4879518 L12.253012,13.4728916 L7.83433735,8.51204819 C7.48192771,8.15963855 7.48192771,7.59036145 7.83433735,7.23795181 C8.18674699,6.88554217 8.7560241,6.88554217 9.10843373,7.23795181 L13.5542169,12.1987952 L18.5150602,7.23795181 C18.8674699,6.88554217 19.436747,6.88554217 19.7891566,7.23795181 C20.1144578,7.59036145 20.1144578,8.15963855 19.7620482,8.51204819 L19.7620482,8.51204819 Z" id="Path" fill="#003175" opacity="0.555826823"></path>
            </g>
        </g>
    </g>
</svg>